<svg width="158" height="218" viewBox="0 0 158 218" xmlns="http://www.w3.org/2000/svg" xmlns:xlink="http://www.w3.org/1999/xlink"><title>big-icon</title><defs><path id="a" d="M0 125V0h130v125z"/></defs><g fill="none" fill-rule="evenodd"><path d="M144.696 125.08c-6.086 0-11.16 3.967-12.745 9.35v-9.433c0-7.092-5.957-12.843-13.304-12.843-6.086 0-11.162 3.97-12.745 9.353v-9.677c0-7.092-5.957-12.843-13.307-12.843-6.367 0-11.675 4.326-12.983 10.094V60.843C79.612 53.75 73.655 48 66.308 48 58.96 48 53 53.75 53 60.843v89.895c0 6.224-6.734 6.224-9.36 4.308-2.63-1.916-13.936-11.777-13.936-11.777-5.185-4.978-12.515-6.586-18.357-2.117-5.84 4.467-7.09 12.656-2.794 18.295 0 0 39.147 51.18 40.88 53.61C51.167 215.488 55.47 218 55.47 218h90.697S158 180.18 158 174.077v-36.154c0-7.092-5.957-12.842-13.304-12.842" fill="#080B15"/><mask id="b" fill="#fff"><use xlink:href="#a"/></mask><path d="M95.099 86.89c1.99.408 4.168 1.322 5.884 2.153 5.029-7.04 8.017-15.613 8.017-24.88C109 40.364 89.485 21 65.5 21 41.513 21 22 40.364 22 64.163 22 79.075 29.66 92.239 41.28 100V86.218c-5.385-5.818-8.703-13.551-8.703-22.055 0-18.012 14.768-32.665 32.923-32.665s32.923 14.653 32.923 32.665c0 8.66-3.436 16.518-8.996 22.368 1.484-.085 3.536-.076 5.672.36" fill="#080B15" mask="url(#b)"/><path d="M40.79 125v-11.606c-17.88-8.906-30.217-27.298-30.217-48.554 0-29.934 24.416-54.29 54.427-54.29s54.427 24.356 54.427 54.29c0 11.585-3.687 22.312-9.913 31.139a13.6 13.6 0 0 1 1.033 1.182c1.137 1.491 2.092 3.517 2.092 3.517s3.377-.106 6.47.04C125.983 90.438 130 78.1 130 64.84 130 29.087 100.841 0 65 0S0 29.087 0 64.84C0 92.06 16.908 115.4 40.79 125" fill="#080B15" mask="url(#b)"/></g></svg>