<svg width="89" height="105" viewBox="0 0 89 105" xmlns="http://www.w3.org/2000/svg"><title>icon-shield</title><path d="M76.827 43.423c0 1.531-.278 5.672-1.322 9.17-7.98 0-29.594.023-31.006.025v39.908C39.3 89.88 30.49 84.415 23.15 74.989c-5.707-7.332-8.555-15.982-9.972-22.425H44.5V17.888l32.328 7.378v18.157zM73.174 6.176l-.188 5.803L54.74 7.673v-5.24L44.5 0 34.257 2.433v5.24L16.013 11.98l-.187-5.803L0 9.92v33.503S.865 65.26 13.59 81.605C26.995 98.822 44.5 105 44.5 105s17.502-6.178 30.91-23.395C88.132 65.26 89 43.423 89 43.423V9.92L73.174 6.176z" fill-rule="evenodd"/></svg>