<svg width="116" height="81" viewBox="0 0 116 81" xmlns="http://www.w3.org/2000/svg"><title>icon-camera</title><g fill-rule="evenodd"><path d="M58 65.157c-7.715 0-13.969-6.295-13.969-14.058 0-7.765 6.254-14.058 13.969-14.058 7.714 0 13.967 6.293 13.967 14.058 0 7.763-6.253 14.058-13.967 14.058zM9.225 27A50.74 50.74 0 0 0 9 31.688C9 58.922 30.936 81 58 81c27.062 0 49-22.078 49-49.312 0-1.582-.08-3.144-.225-4.688H9.225zm91.389-27v11.255c0 1.87-1.51 3.39-3.37 3.39-1.862 0-3.37-1.52-3.37-3.39V0h-4.462v11.255c0 1.87-1.509 3.39-3.372 3.39-1.86 0-3.37-1.52-3.37-3.39V0H0v14.723C0 18.743 3.242 22 7.24 22h101.522c4 0 7.238-3.258 7.238-7.277V0h-15.386"/><path d="M54.652 51.505a3.075 3.075 0 1 1 0-6.15 3.075 3.075 0 0 1 0 6.15zM57.001 42C52.03 42 48 46.029 48 50.998A9.001 9.001 0 0 0 57 60c4.97 0 9-4.03 9-9.002A9 9 0 0 0 57 42z"/></g></svg>