<svg width="91" height="139" viewBox="0 0 91 139" xmlns="http://www.w3.org/2000/svg"><title>icon-ruka</title><g fill-rule="evenodd"><path d="M90.996 76.94V46.13c0-.728.292-6.047-5.986-7.577-6.279-1.53-8.978 4.736-8.978 4.736l-9.78 21.05s-1.753 4.735 2.408 6.847c4.16 2.112 6.498-1.603 6.498-1.603l5.546-11.653 3.87 1.966s-3.87 7.72-5.548 11.363c-1.679 3.643-7.372 5.753-12.118 3.642-4.745-2.112-4.963-7.285-4.963-7.285s-2.773 1.603-4.817 1.385c-2.045-.219-4.087-1.093-4.087-1.093s.583 1.278.984 2.808c.42 1.606.401 3.31.401 3.31v16.827h-4.16V73.298c0-1.927-1.678-8.886-8.978-14.568-7.3-5.681-17.226-5.973-17.226-5.973l8.905-17.99s8.023.094 13.357-3.168C53.113 27.447 53.477 21 53.477 21h-32.7s-3.139.147-5.912 2.04c-2.08 1.42-3.14 3.86-3.14 3.86S3.844 43.944.997 50.281C-1.851 56.62 2.31 61.644 2.31 61.644l24.744 32.997V139h50.512v-32.851L89.96 81.967c1.166-2.33 1.037-5.026 1.037-5.026"/><path d="M53.466 64.279c3.87 1.795 8.461.122 10.26-3.732l15.55-33.593c1.8-3.856.125-8.434-3.74-10.233-3.87-1.795-8.463-.123-10.26 3.731L49.722 54.048c-1.798 3.858-.122 8.435 3.744 10.23m-9.2-53.538c1.825-3.78.128-8.268-3.786-10.032-3.92-1.76-8.57-.123-10.391 3.657L24 17h17.25l3.016-6.26m12.322 13.601c-1.402 4.924-4.69 8.863-8.085 10.943-3.384 2.074-6.398 3.547-13.362 3.934L30 50.436c5.392.521 10.235 2.929 13.897 6.564L61.28 19.068c1.788-3.896.125-8.521-3.71-10.339-3.842-1.814-8.398-.127-10.183 3.77l-2.243 4.892h11.013s1.83 2.026.43 6.95"/></g></svg>